<svg xmlns="http://www.w3.org/2000/svg" viewBox="0 0 480 320">
  <rect width="480" height="320" rx="16" fill="#26262e"/>
  <rect x="24" y="24" width="52" height="10" rx="5" fill="#75757f"/>
  <rect x="24" y="48" width="148" height="18" rx="4" fill="#d8d8e0"/>
  <rect x="24" y="84" width="432" height="1" fill="#3a3a46"/>
  <rect x="24" y="108" width="72" height="10" rx="5" fill="#75757f"/>
  <rect x="24" y="130" width="200" height="14" rx="4" fill="#9fc1ff"/>
  <rect x="24" y="168" width="48" height="10" rx="5" fill="#75757f"/>
  <rect x="24" y="188" width="22" height="22" rx="5" fill="#f6f1e8"/>
  <rect x="56" y="192" width="110" height="14" rx="4" fill="#a6a6b3"/>
  <rect x="24" y="232" width="80" height="10" rx="5" fill="#75757f"/>
  <rect x="24" y="254" width="160" height="14" rx="4" fill="#d7b979"/>
  <rect x="300" y="108" width="156" height="176" rx="10" fill="#1e1e24"/>
  <rect x="318" y="128" width="88" height="8" rx="4" fill="#75757f"/>
  <rect x="318" y="150" width="120" height="28" rx="6" fill="#4f8cff"/>
  <rect x="318" y="190" width="120" height="28" rx="6" fill="#30303a"/>
  <rect x="318" y="230" width="120" height="28" rx="6" fill="#30303a"/>
</svg>
